#N canvas 570 119 1030 774 10;
#X obj 422 -107 netreceive 3000 1;
#X obj 173 299 loadbang;
#X msg 191 326 0;
#X obj 325 293 loadbang;
#X obj 459 305 loadbang;
#X obj 608 304 loadbang;
#X obj 788 303 loadbang;
#X msg 785 329 1;
#X msg 468 329 0.5;
#X msg 337 326 0.25;
#X obj 954 36 float;
#X obj 928 79 metro;
#X text 1091 57 4 bars;
#X obj 958 58 expr 1000/($f1/60)*4;
#X msg 625 326 0.75;
#X obj 94 355 multi_channel_player;
#X obj 683 353 multi_channel_player;
#X obj 241 354 multi_channel_player;
#X obj 390 353 multi_channel_player;
#X obj 537 352 multi_channel_player;
#X obj 392 120 list, f 6;
#X msg 393 144 1 \$1 \$2 \, 2 \$1 \$2 \, 3 \$1 \$2 \, 4 \$1 \$2 \,
5 \$1 \$2;
#X obj 399 -64 route A B C D E all loop;
#X msg 760 112 symbol play;
#X obj 939 -17 list;
#X obj 941 -3 t b f;
#X msg 898 33 stop;
#X obj 770 -60 route start stop;
#X msg 758 69 symbol stop;
#X msg 216 -63;
#X obj 183 40 print;
#X connect 0 0 22 0;
#X connect 0 0 29 0;
#X connect 0 0 30 0;
#X connect 1 0 2 0;
#X connect 2 0 15 1;
#X connect 3 0 9 0;
#X connect 4 0 8 0;
#X connect 5 0 14 0;
#X connect 6 0 7 0;
#X connect 7 0 16 1;
#X connect 8 0 18 1;
#X connect 9 0 17 1;
#X connect 10 0 13 0;
#X connect 11 0 23 0;
#X connect 13 0 11 1;
#X connect 14 0 19 1;
#X connect 20 0 21 0;
#X connect 21 0 15 0;
#X connect 21 0 17 0;
#X connect 21 0 18 0;
#X connect 21 0 19 0;
#X connect 21 0 16 0;
#X connect 22 0 15 0;
#X connect 22 1 17 0;
#X connect 22 2 18 0;
#X connect 22 3 19 0;
#X connect 22 4 16 0;
#X connect 22 5 20 0;
#X connect 22 6 27 0;
#X connect 23 0 21 0;
#X connect 24 0 25 0;
#X connect 25 0 11 0;
#X connect 25 1 10 0;
#X connect 26 0 11 0;
#X connect 27 0 24 0;
#X connect 27 1 26 0;
#X connect 27 1 28 0;
#X connect 28 0 20 0;
