#N canvas 8 50 576 565 10;
#X declare -path o-knob;
#X obj 49 50 r aux;
#X obj 49 72 sel 1;
#X msg 49 93 1;
#X obj 49 116 +;
#X obj 88 118 f;
#X floatatom 49 138 5 0 0 0 - - -, f 5;
#X obj 172 23 loadbang;
#X obj 49 157 t f f f b;
#X msg 48 493 \; led \$1;
#X obj 89 221 s o-page-selected;
#X obj 179 117 s o-load;
#X obj 178 54 delay 1000;
#X text 328 164 *clear the screen*;
#X obj 63 240 sel 1 2 3 4 5;
#X floatatom 49 179 5 0 0 0 - - -, f 5;
#X msg 179 95 4;
#X obj 48 450 expr if($f1 == 1 \, 0 \, if($f1 == 2 \, 5 \, if($f1 ==
3 \, 3 \, if($f1 == 4 \, 7 \, if($f1 == 5 \, 1 \, $f1)))));
#X obj 380 32 declare -path o-knob;
#X msg 101 293 \; screenLine5 Page 1 (lfo) \;;
#X msg 101 333 \; screenLine5 Page 2 (delay) \;;
#X obj 125 119 % 3;
#X msg 101 373 \; screenLine5 Page 3 (audio in) \;;
#X msg 201 142 \; screenLine1 : \; screenLine2 : \; screenLine3 : \;
screenLine4 : \;;
#X connect 0 0 1 0;
#X connect 1 0 2 0;
#X connect 2 0 3 0;
#X connect 3 0 4 0;
#X connect 3 0 5 0;
#X connect 4 0 20 0;
#X connect 5 0 7 0;
#X connect 6 0 2 0;
#X connect 6 0 11 0;
#X connect 7 0 14 0;
#X connect 7 1 13 0;
#X connect 7 2 9 0;
#X connect 7 3 22 0;
#X connect 11 0 15 0;
#X connect 13 0 18 0;
#X connect 13 1 19 0;
#X connect 13 2 21 0;
#X connect 14 0 16 0;
#X connect 15 0 10 0;
#X connect 16 0 8 0;
#X connect 20 0 3 1;
