#N canvas 11 50 1265 639 10;
#X obj 36 64 o-knob 1 1;
#X obj 464 64 o-knob 1 2;
#X obj 722 64 o-knob 1 3;
#X obj 51 406 o-knob 2 1;
#X obj 375 312 o-knob 2 2;
#X obj 722 84 + 0.001;
#X obj 722 108 / 1.002;
#X obj 671 308 o-knob 2 3;
#X obj 671 332 + 0.001;
#X obj 671 356 / 1.002;
#X text 35 29 general;
#X msg 671 431 \; screenLine3 3: delay fback \$1%;
#X msg 425 497 \; screenLine2 2: delay time \$1ms;
#X msg 722 197 \; screenLine3 3: lfo int \$1%;
#X msg 464 211 \; screenLine2 2: lfo rate \$1Hz;
#X obj 82 87 + 0.001;
#X obj 82 111 / 1.002;
#X obj 81 205 hradio 15 1 0 2 empty empty empty 0 -8 0 10 -262144 -1
-1 0;
#X obj 82 133 * 2;
#X obj 81 183 i;
#X obj 81 235 sel 0 1;
#X obj 51 434 + 0.001;
#X obj 51 458 / 1.002;
#X obj 146 480 s cutoffknob;
#X obj 373 343 + 0.001;
#X obj 373 367 / 1.002;
#X obj 432 406 s timeknob;
#X obj 743 389 s feedbackknob;
#X obj 777 140 s intervalknob;
#X obj 523 104 s rateknob;
#X obj 464 94 + 0.001;
#X obj 464 118 / 1.002;
#X obj 464 140 * 100;
#X obj 464 162 i;
#X obj 464 184 / 100;
#X obj 722 130 * 100;
#X obj 722 152 i;
#X obj 671 382 * 100;
#X obj 671 404 i;
#X floatatom 146 185 5 0 0 0 - - -, f 5;
#X obj 82 154 - 0.01;
#X obj 146 204 s lfoselect;
#X msg 64 290 \; screenLine1 1: lfo shape [ squ ];
#X msg 63 332 \; screenLine1 1: lfo shape [ tri ];
#X obj 60 569 o-knob 3 1;
#X obj 1022 84 + 0.001;
#X obj 1022 108 / 1.002;
#X obj 1045 51 o-knob 1 4;
#X obj 1021 312 o-knob 2 4;
#X obj 370 569 o-knob 3 2;
#X obj 690 569 o-knob 3 3;
#X obj 949 430 + 0.001;
#X obj 949 454 / 1.002;
#X obj 949 480 * 100;
#X obj 949 502 i;
#X obj 1021 487 s audioinknob;
#X obj 950 403 o-knob 3 4;
#X msg 949 530 \; screenLine4 4: audio in gain \$1;
#X obj 1102 164 s pitch;
#X floatatom 973 159 5 0 0 0 - - -, f 5;
#X obj 976 130 hsl 128 15 0 1 0 0 empty empty empty -2 -8 0 10 -262144
-1 -1 4295 0;
#X obj 391 426 * 1000;
#X obj 391 450 + 60;
#X obj 391 472 i;
#X obj 1039 160 * 7.05;
#X obj 1051 233 pow;
#X obj 1039 185 t b f;
#X msg 1039 208 2;
#X obj 1051 258 * 35;
#X obj 1051 280 i;
#X msg 1077 368 \; screenLine4 4: pitch \$1Hz;
#X connect 0 0 15 0;
#X connect 1 0 29 0;
#X connect 1 0 30 0;
#X connect 2 0 5 0;
#X connect 3 0 21 0;
#X connect 4 0 24 0;
#X connect 5 0 6 0;
#X connect 6 0 28 0;
#X connect 6 0 35 0;
#X connect 7 0 8 0;
#X connect 8 0 9 0;
#X connect 9 0 27 0;
#X connect 9 0 37 0;
#X connect 15 0 16 0;
#X connect 16 0 18 0;
#X connect 17 0 20 0;
#X connect 17 0 39 0;
#X connect 18 0 40 0;
#X connect 19 0 17 0;
#X connect 20 0 42 0;
#X connect 20 1 43 0;
#X connect 21 0 22 0;
#X connect 22 0 23 0;
#X connect 24 0 25 0;
#X connect 25 0 26 0;
#X connect 25 0 61 0;
#X connect 30 0 31 0;
#X connect 31 0 32 0;
#X connect 32 0 33 0;
#X connect 33 0 34 0;
#X connect 34 0 14 0;
#X connect 35 0 36 0;
#X connect 36 0 13 0;
#X connect 37 0 38 0;
#X connect 38 0 11 0;
#X connect 39 0 41 0;
#X connect 40 0 19 0;
#X connect 44 0 21 0;
#X connect 45 0 46 0;
#X connect 46 0 58 0;
#X connect 46 0 60 0;
#X connect 46 0 64 0;
#X connect 47 0 45 0;
#X connect 48 0 45 0;
#X connect 49 0 24 0;
#X connect 50 0 8 0;
#X connect 51 0 52 0;
#X connect 52 0 53 0;
#X connect 52 0 55 0;
#X connect 53 0 54 0;
#X connect 54 0 57 0;
#X connect 56 0 51 0;
#X connect 60 0 59 0;
#X connect 61 0 62 0;
#X connect 62 0 63 0;
#X connect 63 0 12 0;
#X connect 64 0 66 0;
#X connect 65 0 68 0;
#X connect 66 0 67 0;
#X connect 66 1 65 1;
#X connect 67 0 65 0;
#X connect 68 0 69 0;
#X connect 69 0 70 0;
