#N canvas -11 -11 1920 1016 16;
#X obj -3169 -340 *~ 4.408e+006;
#X obj -3140 -474 phasor~ 0.0091;
#X obj -1963 -417 expr~ (sin($v1/(8*$v1/10%10)))*($v1%(5510*2)<5000)*(sin($v1/25000)*0.5+0.5)*0.05
\;;
#X obj -1963 -464 expr~ (sin($v1%400000*1249))*(sin($v1/1600) * 0.5+0.5)*0.1
\;;
#X obj -2854 -50 expr~ (sin($v1%600000*3333))* (sin($v1/1900) * 0.5+0.5)*0.1
\;;
#X obj -2939 -124 expr~ ($v1%(5510*16)%(5510*10)<100)*0.3 \;;
#X obj -1962 -330 expr~ (sin($v1/(4*$v1%12)))*($v1%(5510*2)<5000)*(sin($v1/12000)*0.5+0.5)*0.05
\;;
#X obj -2776 51 expr~ (sin($v1+sin($v1/4) * (sin($v1/1500) * sin($v1/5000)
* 10))) * ($v1%5510<800) * (sin($v1/6000) * 0.5+0.5)*0.2 \;;
#X obj -1950 -245 expr~ (sin($v1+sin($v1/8) * (sin($v1/3000) * sin($v1/10000)
* 10))) * ($v1%5510<800)* (sin($v1/4000) * 0.5+0.5)*0.2 \;;
#X obj -1950 -170 expr~ (sin($v1/80+sin($v1/20) * (sin($v1/1500) *
sin($v1/5500) * 10))) * ($v1%5510<1000) * (sin($v1/6000) * 0.5+0.5)*0.1
\;;
#X obj -3018 -241 expr~ (sin($v1/80+sin($v1/40) * (sin($v1/3000) *
sin($v1/9000) * 10))) * ($v1%5510<1000)* (sin($v1/1000) * 0.5+0.5)*0.1
;
#X obj -3154 -294 s~ pVal1;
#N canvas 0 0 1902 968 selector 0;
#X obj -2631 299 select 1;
#X obj -2504 428 *~ 1;
#X msg -2687 348 1;
#X msg -2546 351 0;
#X obj -2675 129 inlet;
#X obj -2530 130 inlet~;
#X obj -2601 598 outlet~;
#X connect 0 0 2 0;
#X connect 0 1 3 0;
#X connect 1 0 6 0;
#X connect 2 0 1 1;
#X connect 3 0 1 1;
#X connect 4 0 0 0;
#X connect 5 0 1 0;
#X restore -2880 100 pd selector;
#X obj -2916 55 bng 33 250 50 0 empty empty empty 17 7 0 10 -258113
-4034 -4034;
#X obj -2877 56 tgl 33 0 empty empty empty 17 7 0 10 -258113 -4034
-4034 0 1;
#N canvas 0 0 1902 968 selector 0;
#X obj -2631 299 select 1;
#X obj -2504 428 *~ 1;
#X msg -2687 348 1;
#X msg -2546 351 0;
#X obj -2675 129 inlet;
#X obj -2530 130 inlet~;
#X obj -2396 480 outlet~;
#X connect 0 0 2 0;
#X connect 0 1 3 0;
#X connect 1 0 6 0;
#X connect 2 0 1 1;
#X connect 3 0 1 1;
#X connect 4 0 0 0;
#X connect 5 0 1 0;
#X restore -3127 -163 pd selector;
#X obj -3164 -204 bng 33 250 50 0 empty empty empty 17 7 0 10 -258113
-4034 -4034;
#X obj -3125 -203 tgl 33 0 empty empty empty 17 7 0 10 -258113 -4034
-4034 0 1;
#N canvas 0 0 1902 968 selector 0;
#X obj -2631 299 select 1;
#X obj -2504 428 *~ 1;
#X msg -2687 348 1;
#X msg -2546 351 0;
#X obj -2675 129 inlet;
#X obj -2530 130 inlet~;
#X obj -2396 480 outlet~;
#X connect 0 0 2 0;
#X connect 0 1 3 0;
#X connect 1 0 6 0;
#X connect 2 0 1 1;
#X connect 3 0 1 1;
#X connect 4 0 0 0;
#X connect 5 0 1 0;
#X restore -3043 -94 pd selector;
#X obj -3082 -133 bng 33 250 50 0 empty empty empty 17 7 0 10 -258113
-4034 -4034;
#X obj -3043 -132 tgl 33 0 empty empty empty 17 7 0 10 -258113 -4034
-4034 0 1;
#X obj -3020 -274 r~ pVal1;
#X obj -2940 -152 r~ pVal1;
#N canvas 0 0 1902 968 selector 0;
#X obj -2631 299 select 1;
#X obj -2504 428 *~ 1;
#X msg -2687 348 1;
#X msg -2546 351 0;
#X obj -2675 129 inlet;
#X obj -2530 130 inlet~;
#X obj -2396 480 outlet~;
#X connect 0 0 2 0;
#X connect 0 1 3 0;
#X connect 1 0 6 0;
#X connect 2 0 1 1;
#X connect 3 0 1 1;
#X connect 4 0 0 0;
#X connect 5 0 1 0;
#X restore -2957 -3 pd selector;
#X obj -2994 -42 bng 33 250 50 0 empty empty empty 17 7 0 10 -258113
-4034 -4034;
#X obj -2957 -43 tgl 33 0 empty empty empty 17 7 0 10 -258113 -4034
-4034 0 1;
#X obj -2854 -79 r~ pVal1;
#X obj -2775 19 r~ pVal1;
#N canvas 0 0 1902 968 selector 0;
#X obj -2631 299 select 1;
#X obj -2504 428 *~ 1;
#X msg -2687 348 1;
#X msg -2546 351 0;
#X obj -2675 129 inlet;
#X obj -2530 130 inlet~;
#X obj -2396 480 outlet~;
#X connect 0 0 2 0;
#X connect 0 1 3 0;
#X connect 1 0 6 0;
#X connect 2 0 1 1;
#X connect 3 0 1 1;
#X connect 4 0 0 0;
#X connect 5 0 1 0;
#X restore -2718 249 pd selector;
#X obj -2754 212 bng 33 250 50 0 empty empty empty 17 7 0 10 -258113
-4034 -4034;
#X obj -2715 213 tgl 33 0 empty empty empty 17 7 0 10 -258113 -4034
-4034 0 1;
#X obj -2614 174 r~ pVal1;
#X obj -2971 -332 +~ 0.1;
#X floatatom -2895 -349 5 0 0 0 - - -;
#X obj -2862 -384 hsl 128 15 0 10 0 0 empty empty empty -2 -8 0 10
-262144 -1 -1 9700 1;
#X obj -3008 -516 hsl 128 15 0 0.02 0 0 empty empty empty -2 -8 0 20
-262144 -1 -1 6300 0;
#X floatatom -2973 -473 5 0 0 0 - - -;
#X obj -2611 204 expr~ (sin($v1%600000*3333))* (sin($v1/1900) * 0.5+0.5)*0.1
\;;
#N canvas 0 0 1902 968 selector 0;
#X obj -2631 299 select 1;
#X obj -2504 428 *~ 1;
#X msg -2687 348 1;
#X msg -2546 351 0;
#X obj -2675 129 inlet;
#X obj -2530 130 inlet~;
#X obj -2396 480 outlet~;
#X connect 0 0 2 0;
#X connect 0 1 3 0;
#X connect 1 0 6 0;
#X connect 2 0 1 1;
#X connect 3 0 1 1;
#X connect 4 0 0 0;
#X connect 5 0 1 0;
#X restore -2801 165 pd selector;
#X obj -2837 125 bng 33 250 50 0 empty empty empty 17 7 0 10 -258113
-4034 -4034;
#X obj -2801 127 tgl 33 0 empty empty empty 17 7 0 10 -258113 -4034
-4034 0 1;
#X obj -2695 110 r~ pVal1;
#X obj -2909 -431 4.408e+006;
#X obj -2870 -464 bng 15 250 50 0 empty empty empty 17 7 0 10 -262144
-1 -1;
#X obj -3158 -513 hsl 128 15 0 127 0 0 empty empty empty -2 -8 0 10
-262144 -1 -1 4800 0;
#X obj -3076 -407 1e+007;
#X obj -3137 -393 * 1;
#X obj -2747 -464 bng 15 250 50 0 empty empty empty 17 7 0 10 -262144
-1 -1;
#X obj -2629 -460 bng 15 250 50 0 empty empty empty 17 7 0 10 -262144
-1 -1;
#X obj -2786 -431 3.408e+006;
#X obj -2668 -427 2.408e+006;
#X obj -3081 -436 bng 15 250 50 0 empty empty empty 17 7 0 10 -262144
-1 -1;
#X obj -2696 137 expr~ sin($v1*650);
#N canvas 0 0 1902 968 selector 0;
#X obj -2631 299 select 1;
#X obj -2504 428 *~ 1;
#X msg -2687 348 1;
#X msg -2546 351 0;
#X obj -2675 129 inlet;
#X obj -2530 130 inlet~;
#X obj -2396 480 outlet~;
#X connect 0 0 2 0;
#X connect 0 1 3 0;
#X connect 1 0 6 0;
#X connect 2 0 1 1;
#X connect 3 0 1 1;
#X connect 4 0 0 0;
#X connect 5 0 1 0;
#X restore -2664 438 pd selector;
#X obj -2705 397 bng 33 250 50 0 empty empty empty 17 7 0 10 -258113
-4034 -4034;
#X obj -2664 395 tgl 33 0 empty empty empty 17 7 0 10 -258113 -4034
-4034 0 1;
#X obj -3028 347 throw~ outR;
#X obj -3146 346 throw~ outL;
#X obj -2481 257 r notes;
#X obj -2578 288 mtof;
#X obj -2480 378 expr~ $v1;
#X obj -2562 409 *~ 0.01;
#X obj -2572 347 osc~ 555;
#X floatatom -2574 316 5 0 0 0 - - -;
#X obj -2835 -303 snapshot~;
#X obj -2789 -332 bng 15 250 50 0 empty empty empty 17 7 0 10 -262144
-1 -1;
#X floatatom -2827 -274 5 0 0 0 - - -;
#X obj -2366 349 snapshot~;
#X obj -2320 320 bng 15 250 50 0 empty empty empty 17 7 0 10 -262144
-1 -1;
#X floatatom -2358 378 5 0 0 0 - - -;
#X connect 0 0 32 0;
#X connect 1 0 0 0;
#X connect 4 0 23 1;
#X connect 5 0 18 1;
#X connect 7 0 12 1;
#X connect 10 0 15 1;
#X connect 13 0 14 0;
#X connect 14 0 12 0;
#X connect 16 0 17 0;
#X connect 17 0 15 0;
#X connect 19 0 20 0;
#X connect 20 0 18 0;
#X connect 21 0 10 0;
#X connect 22 0 5 0;
#X connect 24 0 25 0;
#X connect 25 0 23 0;
#X connect 26 0 4 0;
#X connect 27 0 7 0;
#X connect 28 0 57 0;
#X connect 28 0 56 0;
#X connect 29 0 30 0;
#X connect 30 0 28 0;
#X connect 31 0 37 0;
#X connect 32 0 11 0;
#X connect 32 0 64 0;
#X connect 33 0 32 1;
#X connect 34 0 33 0;
#X connect 35 0 1 1;
#X connect 35 0 36 0;
#X connect 37 0 28 1;
#X connect 38 0 56 0;
#X connect 39 0 40 0;
#X connect 40 0 38 0;
#X connect 41 0 52 0;
#X connect 42 0 0 1;
#X connect 43 0 42 0;
#X connect 44 0 46 0;
#X connect 45 0 46 1;
#X connect 46 0 0 1;
#X connect 47 0 49 0;
#X connect 48 0 50 0;
#X connect 49 0 0 1;
#X connect 50 0 0 1;
#X connect 51 0 45 0;
#X connect 52 0 38 1;
#X connect 53 0 56 0;
#X connect 53 0 57 0;
#X connect 54 0 55 0;
#X connect 55 0 53 0;
#X connect 58 0 59 0;
#X connect 59 0 63 0;
#X connect 60 0 61 0;
#X connect 61 0 53 1;
#X connect 62 0 60 0;
#X connect 62 0 67 0;
#X connect 63 0 62 0;
#X connect 64 0 66 0;
#X connect 65 0 64 0;
#X connect 67 0 69 0;
#X connect 68 0 67 0;
